<svg xmlns="http://www.w3.org/2000/svg" version="1.1" width="512" height="512" viewBox="0 0 512 512">
  <g id="vinyl_record">
    <g>
      <path fill="#434A54" d="M256,0C114.609,0,0,114.617,0,256c0,141.375,114.609,256,256,256c141.375,0,256-114.625,256-256C512,114.617,397.375,0,256,0zM256,266.664c-5.891,0-10.672-4.773-10.672-10.664s4.781-10.664,10.672-10.664s10.656,4.773,10.656,10.664S261.891,266.664,256,266.664z"/>
    </g>
    <g>
      <path fill="#656D78" d="M197.875,118.391c18.391-7.781,37.953-11.727,58.125-11.727c5.891,0,10.656-4.773,10.656-10.664S261.891,85.336,256,85.336c-94.266,0-170.672,76.406-170.672,170.664c0,5.891,4.781,10.664,10.672,10.664s10.656-4.773,10.656-10.664c0-20.172,3.953-39.727,11.734-58.117c7.516-17.781,18.297-33.758,32.016-47.477S180.094,125.914,197.875,118.391z"/>
      <path fill="#656D78" d="M314.109,393.609c-18.391,7.781-37.938,11.734-58.109,11.734c-5.891,0-10.672,4.766-10.672,10.656s4.781,10.656,10.672,10.656c94.25,0,170.656-76.406,170.656-170.656c0-5.891-4.766-10.664-10.656-10.664s-10.672,4.773-10.672,10.664c0,20.172-3.938,39.719-11.719,58.125c-7.531,17.781-18.297,33.75-32.016,47.469S331.891,386.094,314.109,393.609z"/>
      <path fill="#656D78" d="M181.266,79.078C204.922,69.07,230.062,64,256,64c5.891,0,10.656-4.773,10.656-10.664S261.891,42.664,256,42.664C138.172,42.664,42.656,138.18,42.656,256c0,5.891,4.781,10.664,10.672,10.664S64,261.891,64,256c0-25.93,5.062-51.07,15.078-74.727c9.672-22.859,23.516-43.398,41.156-61.039S158.406,88.75,181.266,79.078z"/>
    </g>
    <path fill="#ED5564" d="M256,181.336c-41.172,0-74.672,33.492-74.672,74.664s33.5,74.656,74.672,74.656s74.656-33.484,74.656-74.656S297.172,181.336,256,181.336zM256,266.664c-5.891,0-10.672-4.773-10.672-10.664s4.781-10.664,10.672-10.664s10.656,4.773,10.656,10.664S261.891,266.664,256,266.664z"/>
    <path fill="#DA4453" d="M256,170.664c-47.125,0-85.344,38.211-85.344,85.336s38.219,85.344,85.344,85.344s85.328-38.219,85.328-85.344S303.125,170.664,256,170.664zM256,320c-35.297,0-64-28.719-64-64c0-35.289,28.703-64,64-64c35.281,0,64,28.711,64,64C320,291.281,291.281,320,256,320z"/>
  </g>
</svg>
